<?xml version="1.0" encoding="UTF-8"?>
<svg width="1024" height="1024" viewBox="0 0 1024 1024" fill="none" xmlns="http://www.w3.org/2000/svg">
  <!-- Gradient Background -->
  <defs>
    <linearGradient id="bg-gradient" x1="0%" y1="0%" x2="100%" y2="100%">
      <stop offset="0%" style="stop-color:#E6B17E;stop-opacity:1" />
      <stop offset="100%" style="stop-color:#D4725C;stop-opacity:1" />
    </linearGradient>

    <filter id="shadow" x="-50%" y="-50%" width="200%" height="200%">
      <feGaussianBlur in="SourceAlpha" stdDeviation="8"/>
      <feOffset dx="0" dy="4" result="offsetblur"/>
      <feComponentTransfer>
        <feFuncA type="linear" slope="0.3"/>
      </feComponentTransfer>
      <feMerge>
        <feMergeNode/>
        <feMergeNode in="SourceGraphic"/>
      </feMerge>
    </filter>
  </defs>

  <!-- Background -->
  <rect width="1024" height="1024" fill="url(#bg-gradient)" rx="180"/>

  <!-- Eight-pointed star (compass rose/noesis symbol) -->
  <g transform="translate(512, 512)" filter="url(#shadow)">
    <!-- Center circle -->
    <circle cx="0" cy="0" r="80" fill="#FFFFFF" opacity="0.95"/>

    <!-- Eight points of the star -->
    <!-- North -->
    <path d="M 0,-80 L -30,-200 L 0,-260 L 30,-200 Z" fill="#FFFFFF" opacity="0.95"/>
    <!-- Northeast -->
    <path d="M 56.6,-56.6 L 141.4,-141.4 L 183.8,-183.8 L 169.7,-127.3 Z" fill="#FFFFFF" opacity="0.9"/>
    <!-- East -->
    <path d="M 80,0 L 200,-30 L 260,0 L 200,30 Z" fill="#FFFFFF" opacity="0.95"/>
    <!-- Southeast -->
    <path d="M 56.6,56.6 L 141.4,141.4 L 183.8,183.8 L 127.3,169.7 Z" fill="#FFFFFF" opacity="0.9"/>
    <!-- South -->
    <path d="M 0,80 L -30,200 L 0,260 L 30,200 Z" fill="#FFFFFF" opacity="0.95"/>
    <!-- Southwest -->
    <path d="M -56.6,56.6 L -141.4,141.4 L -183.8,183.8 L -127.3,169.7 Z" fill="#FFFFFF" opacity="0.9"/>
    <!-- West -->
    <path d="M -80,0 L -200,-30 L -260,0 L -200,30 Z" fill="#FFFFFF" opacity="0.95"/>
    <!-- Northwest -->
    <path d="M -56.6,-56.6 L -141.4,-141.4 L -183.8,-183.8 L -169.7,-127.3 Z" fill="#FFFFFF" opacity="0.9"/>

    <!-- Inner detail circle -->
    <circle cx="0" cy="0" r="50" fill="none" stroke="#D4725C" stroke-width="3" opacity="0.6"/>
    <circle cx="0" cy="0" r="30" fill="none" stroke="#E6B17E" stroke-width="2" opacity="0.5"/>

    <!-- Small center dot -->
    <circle cx="0" cy="0" r="12" fill="#D4725C"/>
  </g>
</svg>
